<svg width="84" height="76" viewBox="0 0 84 76" fill="none" xmlns="http://www.w3.org/2000/svg">
<path d="M0.333374 67.1667C0.333374 71.75 4.08337 75.5 8.66671 75.5H75.3334C79.9167 75.5 83.6667 71.75 83.6667 67.1667V54.6667H0.333374V67.1667ZM8.66671 63H75.3334V67.1667H8.66671V63Z" fill="url(#paint0_linear_11_90)"/>
<path d="M69.75 35.9167C61.625 35.9167 61.0417 40.0834 55.875 40.0834C50.9167 40.0834 49.9583 35.9167 42 35.9167C33.875 35.9167 33.2917 40.0834 28.125 40.0834C23.1667 40.0834 22.2083 35.9167 14.25 35.9167C6.125 35.9167 5.54167 40.0834 0.375 40.0834V48.4167C8.29167 48.4167 9.41667 44.25 14.3333 44.25C19.2917 44.25 20.25 48.4167 28.2083 48.4167C36.3333 48.4167 36.9167 44.25 42.0833 44.25C47.0417 44.25 48 48.4167 55.9583 48.4167C64.0833 48.4167 64.6667 44.25 69.8333 44.25C74.7917 44.25 75.6667 48.3334 83.6667 48.4167L83.625 40.1667C76.9167 38.7917 76.875 35.9167 69.75 35.9167Z" fill="url(#paint1_linear_11_90)"/>
<path d="M83.6667 25.5C83.75 8.83333 65.8334 0.5 42 0.5C18.2084 0.5 0.333374 8.83333 0.333374 25.5V29.6667H83.6667V25.5ZM9.41671 21.3333C12.875 12.2083 27.875 8.83333 42 8.83333C55.7917 8.83333 66.7084 11.875 71.9584 17.125C73.2084 18.4167 74.125 19.7917 74.6667 21.3333H9.41671Z" fill="url(#paint2_linear_11_90)"/>
<defs>
<linearGradient id="paint0_linear_11_90" x1="42" y1="54.6667" x2="42" y2="75.5" gradientUnits="userSpaceOnUse">
<stop stop-color="#FDCB52"/>
<stop offset="0.53" stop-color="#FC353C"/>
<stop offset="1" stop-color="#2E0795"/>
</linearGradient>
<linearGradient id="paint1_linear_11_90" x1="42.0208" y1="35.9167" x2="42.0208" y2="48.4167" gradientUnits="userSpaceOnUse">
<stop stop-color="#FDCB52"/>
<stop offset="0.53" stop-color="#FC353C"/>
<stop offset="1" stop-color="#2E0795"/>
</linearGradient>
<linearGradient id="paint2_linear_11_90" x1="42.0002" y1="0.5" x2="42.0002" y2="29.6667" gradientUnits="userSpaceOnUse">
<stop stop-color="#FDCB52"/>
<stop offset="0.53" stop-color="#FC353C"/>
<stop offset="1" stop-color="#2E0795"/>
</linearGradient>
</defs>
</svg>
