<svg width="92" height="92" viewBox="0 0 92 92" fill="none" xmlns="http://www.w3.org/2000/svg">
<path d="M62.6666 0.166687C52.7083 0.166687 43.9583 5.16669 38.7083 12.75C37 12.7084 35.2916 12.6667 33.5 12.6667C15.0833 12.6667 0.166626 14.75 0.166626 29.3334V71C0.166626 74.6667 1.79163 77.9584 4.33329 80.25V87.6667C4.33329 89.9584 6.20829 91.8334 8.49996 91.8334H12.6666C14.9583 91.8334 16.8333 89.9584 16.8333 87.6667V83.5H50.1666V87.6667C50.1666 89.9584 52.0416 91.8334 54.3333 91.8334H58.5C60.7916 91.8334 62.6666 89.9584 62.6666 87.6667V80.25C65.2083 77.9584 66.8333 74.6667 66.8333 71V58.1667C80.9583 56.125 91.8333 44.0417 91.8333 29.3334C91.8333 13.2084 78.7916 0.166687 62.6666 0.166687ZM33.5 21H34.7083C34.3333 22.3334 34.0416 23.75 33.8333 25.125H9.91663C12.2083 22.9167 18.125 21 33.5 21ZM8.49996 33.4584H33.8333C34.5 38.0834 36.2083 42.3334 38.75 46H8.49996V33.4584ZM58.5 71C58.5 72.5417 57.625 73.5834 57.0833 74.0417L55.875 75.1667H11.125L9.91663 74.0417C9.37496 73.5834 8.49996 72.5417 8.49996 71V54.3334H47.7083C50.9583 56.2917 54.5833 57.625 58.5 58.1667V71ZM62.6666 50.1667C51.1666 50.1667 41.8333 40.8334 41.8333 29.3334C41.8333 17.8334 51.1666 8.50002 62.6666 8.50002C74.1666 8.50002 83.5 17.8334 83.5 29.3334C83.5 40.8334 74.1666 50.1667 62.6666 50.1667ZM64.75 12.6667H58.5V33.5L73.5833 42.5L76.7083 37.375L64.75 30.375V12.6667Z" fill="url(#paint0_linear_11_86)"/>
<defs>
<linearGradient id="paint0_linear_11_86" x1="46" y1="0.166687" x2="46" y2="91.8334" gradientUnits="userSpaceOnUse">
<stop stop-color="#FDCB52"/>
<stop offset="0.53" stop-color="#FC353C"/>
<stop offset="1" stop-color="#2E0795"/>
</linearGradient>
</defs>
</svg>
