<svg width="40" height="40" viewBox="0 0 40 40" fill="none" xmlns="http://www.w3.org/2000/svg">
<g clip-path="url(#clip0_14_499)">
<path fill-rule="evenodd" clip-rule="evenodd" d="M30.6066 9.39334C30.841 9.62777 30.9727 9.94571 30.9727 10.2772C30.9727 10.6087 30.841 10.9267 30.6066 11.1611L21.7678 19.9999L30.6066 28.8388C30.841 29.0732 30.9727 29.3911 30.9727 29.7227C30.9727 30.0542 30.841 30.3721 30.6066 30.6065C30.3722 30.841 30.0542 30.9727 29.7227 30.9727C29.3912 30.9727 29.0733 30.841 28.8388 30.6065L20 21.7677L11.1612 30.6065C10.9267 30.841 10.6088 30.9727 10.2773 30.9727C9.94576 30.9727 9.62782 30.841 9.3934 30.6065C9.15898 30.3721 9.02728 30.0542 9.02728 29.7227C9.02728 29.3911 9.15898 29.0732 9.3934 28.8388L18.2322 19.9999L9.3934 11.1611C9.15898 10.9267 9.02728 10.6087 9.02728 10.2772C9.02728 9.94571 9.15898 9.62777 9.3934 9.39334C9.62782 9.15892 9.94576 9.02723 10.2773 9.02723C10.6088 9.02723 10.9267 9.15892 11.1612 9.39334L20 18.2322L28.8388 9.39334C29.0733 9.15892 29.3912 9.02723 29.7227 9.02723C30.0542 9.02723 30.3722 9.15892 30.6066 9.39334Z" fill="white"/>
</g>
<defs>
<clipPath id="clip0_14_499">
<rect width="40" height="40" fill="white"/>
</clipPath>
</defs>
</svg>
