<svg width="35" height="35" viewBox="0 0 35 35" fill="none" xmlns="http://www.w3.org/2000/svg">
<g clip-path="url(#clip0_14_334)">
<path d="M35.0024 17.6084C35.0024 7.88278 27.1668 -0.000976562 17.5024 -0.000976562C7.83367 0.00121094 -0.00195312 7.88278 -0.00195312 17.6106C-0.00195312 26.3978 6.39867 33.6822 14.7637 35.0034V22.6987H10.3231V17.6106H14.7681V13.7278C14.7681 9.31559 17.3821 6.87871 21.3787 6.87871C23.2949 6.87871 25.2965 7.22215 25.2965 7.22215V11.5534H23.0893C20.9171 11.5534 20.239 12.9118 20.239 14.3053V17.6084H25.0909L24.3165 22.6965H20.2368V35.0012C28.6018 33.68 35.0024 26.3956 35.0024 17.6084Z" fill="white"/>
</g>
<defs>
<clipPath id="clip0_14_334">
<rect width="35" height="35" fill="white"/>
</clipPath>
</defs>
</svg>
