<svg width="35" height="35" viewBox="0 0 35 35" fill="none" xmlns="http://www.w3.org/2000/svg">
<path d="M10.314 14.3106L7.31278 17.3119C6.08197 18.5427 5.3905 20.212 5.3905 21.9527C5.3905 23.6933 6.08197 25.3626 7.31278 26.5934C8.54359 27.8242 10.2129 28.5157 11.9536 28.5157C13.6942 28.5157 15.3635 27.8242 16.5943 26.5934L20.5931 22.5925C21.3353 21.8502 21.8886 20.9407 22.2066 19.9403C22.5245 18.9399 22.5979 17.8778 22.4204 16.8432C22.243 15.8086 21.82 14.8316 21.1868 13.9943C20.5537 13.157 19.729 12.4838 18.7818 12.0312L17.5 13.3131C17.3698 13.4435 17.2566 13.5897 17.1631 13.7484C17.8949 13.9588 18.5591 14.3565 19.09 14.9023C19.621 15.448 20.0004 16.1228 20.1906 16.8601C20.3808 17.5974 20.3753 18.3715 20.1747 19.106C19.974 19.8405 19.5852 20.51 19.0465 21.0481L15.05 25.0469C14.229 25.8678 13.1156 26.329 11.9547 26.329C10.7937 26.329 9.68027 25.8678 8.85934 25.0469C8.03841 24.2259 7.57722 23.1125 7.57722 21.9516C7.57722 20.7906 8.03841 19.6772 8.85934 18.8562L10.594 17.1238C10.3486 16.2067 10.254 15.258 10.314 14.3106Z" fill="white"/>
<path d="M14.4069 10.2201C13.6647 10.9624 13.1114 11.8719 12.7934 12.8723C12.4754 13.8727 12.4021 14.9348 12.5795 15.9694C12.757 17.004 13.18 17.981 13.8131 18.8183C14.4463 19.6556 15.271 20.3288 16.2181 20.7813L17.9135 19.0838C17.1718 18.8849 16.4955 18.4943 15.9527 17.9512C15.4098 17.4081 15.0194 16.7317 14.8208 15.9899C14.6222 15.2481 14.6223 14.4672 14.8211 13.7254C15.0199 12.9837 15.4104 12.3074 15.9535 11.7645L19.95 7.76572C20.7709 6.94479 21.8844 6.4836 23.0453 6.4836C24.2063 6.4836 25.3197 6.94479 26.1406 7.76572C26.9616 8.58665 27.4228 9.70007 27.4228 10.861C27.4228 12.022 26.9616 13.1354 26.1406 13.9563L24.406 15.6888C24.651 16.6076 24.745 17.5592 24.686 18.5042L27.6872 15.5029C28.918 14.2721 29.6095 12.6028 29.6095 10.8621C29.6095 9.1215 28.918 7.45216 27.6872 6.22135C26.4564 4.99054 24.7871 4.29907 23.0464 4.29907C21.3058 4.29907 19.6365 4.99054 18.4056 6.22135L14.4069 10.2201Z" fill="white"/>
</svg>
