<svg width="200" height="255" viewBox="0 0 200 255" fill="none" xmlns="http://www.w3.org/2000/svg">
<path fill-rule="evenodd" clip-rule="evenodd" d="M115.694 73.0066C116.111 72.5906 115.177 74.3852 120.759 75.5519C126.341 76.7186 139.639 78.2332 141.377 77.8572C143.116 77.4826 145.343 74.1319 145.984 72.1319C146.624 70.1319 145.312 79.2159 142.428 80.0066C139.545 80.7986 124.304 78.2986 120.003 77.0479C115.702 75.7986 115.694 73.2159 115.694 73.0066ZM63.2776 147.411L63.3281 147.419C63.8942 145.594 64.5697 143.448 64.838 142.436C65.2088 141.035 64.9682 136.137 64.8724 134.457C64.4729 134.46 64.0781 134.191 63.8021 133.364C63.0021 130.964 61.1021 127.164 59.7021 125.164C58.3021 123.164 57.0026 120.464 56.2026 117.464C56.0245 116.796 55.9062 115.737 55.85 114.551C55.7609 113.68 55.8005 112.757 55.8224 111.875C55.8797 101.952 50.4869 97.0866 47.9254 87.3066C45.1073 76.5452 41.9073 76.0692 41.9073 63.6559L42.8385 54.6972C43.9145 44.3452 38.6833 44.9972 46.1062 36.6359C49.224 33.1226 51.8874 29.0812 54.2062 24.6359L58.5062 19.0359C65.1328 11.1732 61.9786 14.4999 69.2057 10.4359C70.8057 9.53589 75.3057 6.63589 75.3057 6.63589L81.6057 4.33589H85.9057C88.9885 2.28123 89.1369 2.22789 91.2958 2.86389C94.1521 3.70522 95.6016 2.90789 97.8068 1.76656C100.692 0.274558 104.499 1.31856 107.839 2.05056C109.953 2.51456 111.148 2.07456 113.014 2.07323C114.003 2.07323 115.128 2.35323 116.376 2.7879C116.376 2.7879 124.992 3.41322 132.89 6.62789C139.824 9.45055 147.021 13.8426 148.076 14.9252C151.196 18.1292 151.165 24.4239 150.864 29.8159C152.728 31.2546 155.939 34.3599 156.753 39.1306C158.848 51.3986 157.107 78.5999 151.376 91.3786C151.059 92.0879 150.537 93.2919 148.94 93.3652C147.285 97.2586 146.748 99.5986 146.672 100.883C146.507 103.715 149.984 123.879 149.984 123.879L149.979 123.885C150.476 127.605 150.571 129.188 147.152 132.963C146.068 134.161 145.903 136.163 145.152 137.463C144.403 138.763 143.303 140.214 143.303 141.063C143.303 141.488 141.379 143.262 139.079 145.168C138.659 147.056 138.092 149.963 138.287 151.135C138.307 151.257 138.415 151.434 138.595 151.658C155.703 156.383 156.003 165.373 157.864 183.407C158.915 193.573 157.188 202.525 147.317 202.736L68.3973 208.581C58.7693 208.581 50.7917 197.969 46.7265 181.33C45.1396 174.833 39.5297 160.531 45.527 156.271C48.6177 154.076 52.6557 152.056 55.4584 151.267L55.4546 151.253C55.7833 151.162 56.0948 151.088 56.3849 151.033C56.6734 150.977 60.1046 150.106 62.6469 149.476C62.8088 148.925 63.0333 148.198 63.2776 147.411ZM142.92 156.361L142.935 156.376V156.377C142.735 156.327 142.548 156.301 142.381 156.298C141.505 156.311 141.197 157.024 142.323 158.741C142.383 158.832 142.423 158.927 142.455 159.023C145.261 163.329 145.272 164.008 141.535 170.736C140.535 172.535 139.035 173.635 135.635 174.735C132.234 175.836 132.434 178.535 128.535 181.935C124.635 185.335 116.434 186.136 112.034 189.036C107.634 191.936 99.9344 191.436 96.3344 188.135C92.7344 184.835 85.9354 179.535 85.8349 178.635C85.7349 177.735 83.6349 176.935 81.4354 175.635C79.2354 174.335 77.9349 173.135 77.6349 170.235C77.3349 167.335 76.1354 168.535 73.3349 166.635C70.5349 164.735 71.3349 163.635 70.6349 161.735C69.9349 159.835 69.6354 160.335 68.7349 159.935C67.8349 159.535 67.2349 158.135 67.0349 156.635C66.8349 155.135 64.9349 154.835 63.5349 154.535C60.5286 153.891 66.1213 150.364 55.9822 153.265C53.3781 154.099 49.8806 156.46 49.0854 156.811C40.6797 160.519 63.4354 194.999 65.3109 197.148C68.2494 200.514 89.2052 200.483 141.248 196.247C149.188 196.014 152.053 189.687 152.421 182.118C152.823 173.892 151.672 164.137 146.109 158.319C145.131 157.296 143.863 156.572 142.92 156.361ZM105.107 123.879C105.107 123.879 109.773 123.545 111.107 123.879C112.44 124.212 109.398 129.879 109.398 129.879C109.398 129.879 113.698 127.587 114.569 124.045C115.44 120.504 103.94 121.962 105.107 123.879ZM133.353 116.749C139.3 111.04 141.363 107.945 144.252 99.4946V99.4932L144.26 99.4692C144.753 98.0106 145.631 95.8359 146.712 93.4532C145.679 93.4826 144.619 93.4692 143.892 93.4879L140.429 103.115C140.421 103.199 140.397 103.291 140.356 103.389C140.331 103.449 140.303 103.503 140.272 103.551V103.552C140.076 103.859 139.787 103.895 139.441 103.819L133.353 116.749ZM143.003 107.1C141.624 109.645 139.661 112.92 137.573 115.275C135.24 117.907 133.567 119.249 132.593 119.907L135.44 134.826C135.628 134.583 135.751 134.368 135.751 134.214C135.751 132.922 136.351 129.988 136.855 128.642L136.856 128.64L143.003 107.1ZM123.882 124.948C123.535 124.564 123.445 123.988 123.7 123.503C123.932 123.061 124.387 122.811 124.855 122.822L129.227 113.267C128.729 113.952 128.1 114.661 127.628 114.661C126.966 114.661 124.51 112.697 122.915 111.631H122.914L119.942 114.328V115.58C121.57 115.471 122.971 115.335 123.542 115.169C125.292 114.661 123.479 117.211 123.479 117.211L114.044 117.613L114.043 117.612C111.514 117.82 111.695 118.136 107.098 118.133C98.5021 117.745 91.9573 115.723 93.589 114.091C93.589 114.091 99.689 115.291 104.189 115.591C105.432 115.673 106.687 115.727 107.928 115.816C108.23 115.839 109.743 115.795 112.254 115.908H112.254H112.255H112.257H112.26C112.32 115.907 112.825 115.895 113.594 115.869V114.131L115.25 112.828L116.108 112.861V110.828C114.667 110.776 113.51 110.728 113.51 110.728C111.161 110.771 108.778 111.681 107.932 111.576C106.732 111.427 103.581 109.775 100.782 109.676C99.0552 109.615 95.7573 111.456 94.265 112.349C92.0964 113.648 92.6754 113.229 90.1317 113.464C88.1068 113.649 89.2802 114.865 86.4822 114.661C85.626 114.6 84.0568 114.149 83.4969 113.661C81.5614 111.976 82.4021 112.464 84.0573 113.212C86.6973 114.407 86.4636 113.045 87.0906 112.061C87.7901 110.961 87.2098 110.645 87.4104 110.045C87.6104 109.447 86.7604 106.495 87.4604 106.745C88.1604 106.995 88.9604 108.345 89.4604 109.195C89.9604 110.045 91.0838 106.447 91.0838 106.447C91.0838 106.447 91.7093 107.496 92.6338 108.021C93.5588 108.547 96.0588 104.621 96.0588 104.621C96.0588 104.621 96.6344 106.347 97.9344 106.721C99.2344 107.096 102.384 104.471 102.384 104.471C102.384 104.471 103.084 105.596 103.459 105.671C103.835 105.745 104.609 104.521 104.984 104.821C105.36 105.12 106.334 106.445 107.584 106.871C108.834 107.295 110.384 105.845 110.684 105.521C110.984 105.196 111.884 104.721 112.109 105.271C112.271 105.667 112.703 106.269 113.51 106.409V106.532C114.972 106.803 118.588 107.396 120.294 107.003C121.904 106.631 123.65 105.248 124.443 104.561L116.335 94.6386L116.156 94.4212L116.848 91.1359L116.905 90.7572C116.969 90.3399 116.966 85.5666 117.072 83.6879L117.069 81.9759L124.801 83.2879L128.304 87.2492C128.304 87.2492 141.555 90.3466 142.384 90.3466C143.212 90.3466 148.441 78.7532 148.8 76.2466C149.157 73.7399 150.74 69.1386 150.641 63.2786C151.289 63.2492 151.865 62.8732 152.279 62.2812C152.372 62.1479 152.456 62.0039 152.532 61.8492C152.552 68.0172 150.843 73.6492 150.72 76.5799C150.62 78.9679 147.576 88.1092 145.421 91.7999C146.244 91.9039 146.944 91.9212 147.54 91.8746C149.288 91.6919 150.691 88.4999 151.576 86.0266C153.473 80.7159 156.125 58.8892 154.867 41.8599C154.468 42.7546 153.972 43.8906 153.416 45.2186C152.345 47.7799 152.164 52.2946 152.143 54.4532C152.357 55.5812 152.512 56.8572 152.517 58.2146C152.445 58.0719 152.365 57.9372 152.279 57.8119C151.848 57.1946 151.241 56.8132 150.56 56.8132L150.511 56.8146C150.423 53.0599 148.581 49.8372 148.536 48.3439C148.519 48.2466 148.508 48.1759 148.508 48.1386L148.509 47.9266C146.019 46.2826 143.848 44.6466 141.617 44.1252C141.772 45.0666 141.997 45.9639 142.317 46.7999C143.841 50.7706 145.591 52.8492 146.129 55.8999C146.32 56.9826 146.108 59.4426 145.541 60.7626V60.7612C145.228 62.2999 144.551 64.4279 144.967 68.1612C145.467 72.6519 140.732 74.5359 139.816 74.6119C138.899 74.6892 128.231 74.9186 122.316 74.2426C117.039 73.6386 115.228 69.7492 114.569 66.4186C114.221 64.6546 113.971 62.8639 116.275 62.1959C123.145 60.2026 141.565 56.2839 141.565 56.2839C143.255 55.9159 144.319 56.4319 144.941 57.2399C145.16 54.2079 141.436 50.9039 140.345 47.2639C140.017 46.1692 139.772 45.0586 139.596 43.9359C129.884 43.7639 122.591 47.7479 115.891 47.6812C108.882 47.6132 104.57 46.5226 96.1702 45.6932C87.7702 44.8639 79.0702 47.6719 79.0702 47.6719C79.0702 47.6719 86.3702 44.0332 93.5702 43.8426C100.77 43.6506 109.868 46.4212 117.754 45.6932C122.695 45.2372 131.166 42.1626 139.391 42.3479C138.917 37.7212 139.455 32.9252 139.947 28.2426C139.957 28.1426 139.967 28.0426 139.973 27.9426C139.417 27.6239 138.621 27.1932 137.477 26.7506C134.639 25.6492 125.061 22.8346 125.061 22.8346C125.061 22.8346 121.48 20.2519 126.396 21.2519C130.315 22.0492 137.252 24.5932 139.907 25.5932C139.604 23.4719 138.635 21.6066 136.981 20.6452C136.523 20.4572 136.055 20.2732 135.576 20.0946C127.993 17.2612 121.058 15.0732 121.058 15.0732L121.127 15.0639C116.799 14.1052 115.714 7.35989 115.597 5.23456C114.272 5.46656 112.479 9.03056 112.76 11.9332C113.06 15.0332 115.71 17.2346 117.61 20.5346C119.51 23.8346 118.111 28.6346 114.21 33.1346C110.31 37.6346 101.31 39.5346 101.31 39.5346C101.31 39.5346 101.91 38.6332 102.76 37.7332C105.897 34.4132 115.37 28.2412 109.761 21.7332C107.261 18.8346 104.963 17.0346 104.463 13.7346C103.963 10.4346 107.313 6.98389 106.813 5.88389C106.313 4.78389 100.362 10.9346 102.263 14.9346C104.163 18.9346 106.713 19.1839 108.263 21.5839C109.813 23.9839 109.113 26.6346 108.713 25.2852C108.312 23.9346 107.363 21.5346 104.512 19.8839C101.662 18.2346 100.413 16.3839 100.163 14.6346C99.2917 8.53989 104.07 3.70656 102.412 3.53456C100.013 3.28389 95.1125 10.3839 96.1125 15.1346C97.113 19.8839 98.763 22.6346 101.213 24.2852C103.662 25.9346 105.064 25.7359 104.214 24.2852C103.765 23.5199 97.2026 16.6092 101.845 20.6852C103.461 22.1066 105.248 23.1586 106.064 26.1346C106.833 28.9399 96.8156 29.8866 94.2885 17.0599C92.8516 9.76655 98.1218 4.19323 97.1636 4.38389C94.3286 4.95189 88.262 17.6479 90.8636 21.2346C92.7136 23.7852 96.264 24.8852 96.7645 28.0839C97.265 31.2839 96.1636 32.1346 95.964 30.6346C95.764 29.1346 95.564 27.5346 93.164 25.5852C90.764 23.6346 88.3885 22.6599 88.3385 19.0092C88.2885 15.3599 89.753 12.7852 90.3036 11.5359C90.8536 10.2852 92.3521 7.98389 90.3036 8.68389C88.2552 9.38389 84.015 17.9332 85.615 23.0332C87.215 28.1332 90.115 28.2332 90.615 31.5332C91.115 34.8332 89.9145 34.0332 89.665 32.6826C89.415 31.3332 88.9473 29.8026 87.715 29.0332C81.8234 25.3559 83.112 17.8412 86.1656 11.9826C86.6921 10.9732 84.8702 12.8052 83.014 15.5119C80.9797 18.4799 79.1584 23.3226 79.8844 25.6999C80.9844 29.2999 83.5156 30.9332 83.0156 34.4332C82.5156 37.9332 81.3156 40.4332 80.1156 40.4332C78.9156 40.4332 80.615 35.0332 79.515 33.5826C78.4156 32.1332 76.815 31.1332 76.065 29.9332C75.3156 28.7332 75.115 27.7839 75.115 26.4332C75.115 25.0839 76.0901 19.9332 75.265 20.2332C74.4401 20.5332 74.365 29.0839 74.1656 30.7332C73.9656 32.3826 73.7161 36.1839 72.7161 37.6839C71.7156 39.1839 70.2656 38.7839 70.2656 38.7839C70.2656 38.7839 72.4156 39.9346 72.6156 42.5346C72.8156 45.1332 73.1156 45.6332 72.4156 46.9839C71.7156 48.3346 70.4661 48.6839 71.4661 51.8839C72.4526 55.0412 73.5364 56.9332 71.9333 58.7119C71.9286 60.6092 71.9677 64.6279 72.3484 66.8159C72.4297 66.5986 72.5208 66.3759 72.6202 66.1532C74.0526 62.9546 76.2317 59.5999 79.6864 57.8026C84.9172 55.0786 92.1724 55.0146 97.0442 57.2786C100.014 58.6599 101.897 61.3146 104.865 61.8266C107.274 62.2412 105.86 63.4706 104.966 63.8332C103.894 64.2692 103.124 64.8386 103.054 65.3639C102.988 65.8572 103.258 65.9666 103.646 66.6786C103.945 67.2279 104.271 69.2532 104.021 68.8546C103.771 68.4546 103.371 68.6546 102.221 68.8039C101.071 68.9546 101.021 69.9039 100.221 70.2039C99.4202 70.5039 99.4708 70.3039 98.1208 70.2039C96.7708 70.1039 95.9208 69.1039 95.9208 69.1039C95.9208 69.1039 94.9708 69.3546 94.6208 69.6039C94.2708 69.8532 92.9208 69.6546 93.3708 69.4546C93.8202 69.2546 94.9708 68.3039 94.9708 68.3039C94.5806 66.8999 92.6104 65.2399 91.1958 64.9039C86.7781 63.8506 83.7973 65.1946 81.6312 67.7999C82.1661 68.3332 83.0046 69.0666 84.5218 69.4786C86.0385 69.8906 89.9718 70.1786 91.3218 70.1039C92.6718 70.0292 92.8718 70.6279 92.2469 70.6532C91.6213 70.6786 90.6718 70.9039 88.1218 70.9039C85.5718 70.9039 83.7464 70.5279 83.0969 70.4279C82.4469 70.3292 80.5912 68.8586 80.5912 68.8586C80.524 68.8052 80.4666 68.7506 80.4188 68.6959C79.9202 69.0426 79.6322 69.1372 79.9469 69.7452C80.4854 70.7852 82.2926 71.4852 85.4932 71.6239C86.0792 71.6479 86.4052 71.7906 86.0969 71.9892C84.0713 73.2972 79.5901 72.2679 78.362 70.4586C77.9713 70.5692 76.8396 70.9799 76.3702 71.0546C72.1708 71.7172 70.536 71.4052 69.8412 66.3652C69.6921 65.2866 69.9036 63.3492 69.4036 62.9439C68.8906 63.7719 68.2541 64.5306 67.3098 65.0852C67.3098 65.0852 63.8104 74.8852 63.0098 75.9852C62.2098 77.0852 60.7098 77.5852 60.7098 78.1852C60.7098 78.5652 61.6754 80.6212 62.5276 82.3786C63.5281 84.4399 63.7322 84.4519 61.8036 85.0492C60.3729 85.4932 60.1802 85.6852 59.2942 86.8532C58.953 87.3026 58.0901 87.8319 57.4828 87.9119C56.4885 88.0426 54.625 87.6786 53.2598 86.4852C52.7213 86.0132 51.9656 83.4919 51.7614 81.9026C51.5306 80.1106 51.2833 80.0466 50.1817 79.0732C49.4921 78.4626 48.986 77.7279 48.0448 78.0746C47.2245 78.3759 48.2145 79.4306 49.0317 80.6119C50.8609 83.2519 50.9421 84.0212 51.8708 86.0612C52.8754 88.2692 53.1562 89.1786 52.3984 90.2986C51.2978 91.9239 51.9052 91.8172 52.9844 93.7599L54.0588 97.1359C55.6521 99.2746 54.3989 100.16 56.8432 99.3292C57.7734 99.0132 58.9896 97.9492 59.2385 98.1879C59.4426 98.3812 58.7932 99.7306 58.539 100.724C57.9437 103.055 57.2166 103.329 59.177 103.303C60.7917 103.283 62.262 103.641 63.2494 105.265C64.5688 107.437 65.3 106.357 64.577 104.467C63.5317 101.732 65.0505 102.907 66.2765 104.236L67.139 105.397C68.3458 106.705 70.6193 107.56 70.5978 107.588C70.3156 107.971 67.5578 108.217 66.7078 108.077C66.4084 108.028 64.7505 107.187 64.2584 108.336C63.7661 109.485 62.9297 108.859 62.1708 107.933C60.2942 105.645 57.1765 102.607 57.5693 107.032C57.8172 109.827 58.4068 114.204 61.05 113.764C63.45 113.364 65.1005 110.064 66.0505 111.064C67 112.064 66.5104 116.781 69.0005 117.913C71.5713 119.083 70.9536 116.048 72.6453 118.945C72.974 119.509 73.5765 120.053 74.675 120.088C79.215 120.235 77.4854 117.604 79.2614 119.995C79.6677 120.543 80.6052 120.988 81.6254 120.788C83.675 120.389 86.1005 120.564 86.8005 121.463C87.5005 122.363 84.9505 122.163 83.1505 122.563C81.3505 122.963 79.6322 123.463 78.8317 122.663C77.001 120.832 78.7464 120.243 76.3245 120.969C75.451 121.231 74.1849 121.418 72.9505 120.913C72.1573 120.589 71.6885 120.309 71.414 120.085C69.6036 118.608 69.3469 121.043 67.3 118.864C66.263 117.759 65.9098 116.369 65.5598 115.003C64.6426 111.419 62.9136 116.583 60.35 116.313C58.7172 116.141 58.327 113.028 58.853 118.085C59.0844 120.307 59.662 123.087 61.1005 123.863C63.6 125.213 64.6 124.513 65.5 123.813C66.4005 123.113 67.35 121.363 67.9 121.513C68.4505 121.663 67.3 125.213 66.7 125.813C66.1 126.413 65.0005 126.964 65.5505 127.213C66.1 127.463 67.1005 127.363 68 127.413C68.9 127.464 68.3005 129.514 69.3505 131.214C70.4 132.914 71.35 134.013 72 134.013C72.65 134.013 71.95 131.363 72.8 131.963C73.65 132.564 74.5 134.763 75.1505 134.363C75.8005 133.964 76.0005 132.763 76.6505 133.213C77.3 133.663 78.7 136.063 80 135.763C81.3005 135.464 81.5505 134.514 81.8005 135.214C82.05 135.913 82 137.414 82.75 137.514C83.5005 137.613 83.6994 135.764 83.3 135.314C82.9 134.864 81.65 133.864 80.5 132.714C79.35 131.564 77.95 130.264 77.9 128.864C77.8494 127.464 79.6994 127.014 79.6994 127.014C79.6994 127.014 78.8 128.814 80.15 130.514C81.5 132.214 82.4 132.614 82.4 132.614C82.4 132.614 81.75 130.613 81.75 129.614C81.75 128.614 82.15 128.014 82.15 128.014C82.15 128.014 82.2494 131.014 83.4994 132.164C84.75 133.314 87.3 135.214 88.2 135.814C89.1 136.414 89.8494 137.214 90.65 138.064C91.45 138.914 91 139.864 90 139.114C89 138.364 87.25 136.564 85.9 136.064C84.55 135.564 85.3994 138.414 86.9 139.464C88.4 140.514 90.75 141.364 91.8 141.314C92.85 141.264 94.2 141.014 94.9 141.564C95.6 142.114 96.7 142.514 96.55 142.864C96.4 143.214 95.15 142.864 94 142.714C92.85 142.564 92.55 142.814 91.95 143.014C91.35 143.214 91 142.914 90.3 143.364C89.6 143.814 89.1 143.964 89.2 144.464C89.3 144.964 90.7505 146.214 91.2 146.614C91.65 147.014 92.8 147.764 93.15 147.864C93.5 147.964 92.15 146.214 93.35 146.114C94.55 146.014 95.1494 148.164 95.45 148.514C95.75 148.864 96.6994 150.714 97.5494 151.864C98.3994 153.014 99.3994 153.964 100.549 154.914C101.699 155.864 103.699 156.014 104.299 155.564C104.409 155.482 104.531 155.325 104.657 155.121C103.621 155.535 102.493 155.587 101.48 154.562C99.4806 152.537 98.7802 150.862 98.5802 149.962C98.3802 149.061 98.6552 148.187 97.8802 147.912C97.1057 147.637 96.7557 147.536 97.6057 147.011C98.4557 146.486 99.4302 146.562 98.5306 145.687C97.6306 144.811 97.2806 144.937 97.2557 144.487C97.2302 144.037 99.0557 144.537 97.8057 142.711C96.5557 140.886 95.6806 140.086 94.7057 139.511C93.7306 138.936 92.0552 137.911 92.0302 137.461C92.0057 137.011 95.4806 138.861 96.7306 139.836C97.9806 140.811 98.3057 142.462 98.5057 141.287C98.7057 140.111 98.3306 139.236 98.0057 138.661C97.6806 138.086 96.1057 137.236 95.8052 135.015C95.8052 135.015 99.8052 138.545 100.055 139.937C100.305 141.329 99.3546 141.28 99.6546 142.224C99.9552 143.169 100.155 144.362 100.155 144.362C100.155 144.362 101.455 142.423 103.405 142.075C105.355 141.727 106.105 141.876 106.705 140.782C107.305 139.688 108.105 136.009 108.105 136.009C108.105 136.009 108.655 139.44 108.005 141.379C107.355 143.318 106.105 144.61 106.105 144.61C106.105 144.61 107.711 144.651 109.1 143.839C109.12 145.044 110.722 145.5 111.868 145.046C112.384 145.341 112.855 145.491 113.286 145.507C113.319 145.716 113.467 145.842 113.805 145.753L114.029 145.697L117.51 139.26L117.022 139.085C117.022 139.085 120.401 127.691 121.736 128.524L122.171 128.688L123.882 124.948ZM126.345 123.452L127.937 124.286L135.315 108.229L137.519 103.089C137.047 102.824 136.505 102.436 136.056 102.097L126.345 123.452ZM129.388 125.171C129.673 125.532 129.749 126.033 129.555 126.474L131.696 137.7C131.966 137.668 132.214 137.67 132.421 137.734C132.915 137.556 133.298 137.105 133.8 136.564L133.821 136.543L130.936 121.884L129.388 125.171ZM126.872 126.604L125.289 125.774L123.699 129.271C124.28 129.495 124.885 129.73 125.349 129.918L126.872 126.604ZM153.949 36.9812C152.928 39.3946 150.781 45.0199 150.721 49.8226L150.72 49.8186L150.701 49.7986C150.701 49.6412 150.699 49.4719 150.695 49.2892C150.545 42.8439 150.496 43.2132 150.553 35.7826C150.56 34.8572 150.617 33.7892 150.689 32.6319C151.587 33.4679 153.06 35.0292 153.949 36.9812ZM129.829 138.156L127.885 128.363L126.833 130.597C127.09 130.81 127.229 130.848 126.903 131.858C126.577 132.868 122.731 141.127 122.731 141.127L122.27 140.962L121.646 142.38C121.786 142.703 121.577 143.671 121.747 143.891C122.353 144.676 123.555 145.754 124.205 145.505C124.855 145.257 126.955 143.218 126.955 142.671C126.955 142.124 126.756 140.186 127.405 139.39C128.055 138.595 128.055 138.147 129.105 138.246C129.297 138.265 129.547 138.223 129.829 138.156ZM140.821 125.213C140.348 128.198 139.571 134.157 144.704 131.892C144.704 131.892 145.255 131.803 146.155 130.955C146.559 130.573 147.771 127.514 147.356 123.531V123.53C146.747 120.2 145.697 114.361 144.899 109.443L140.821 125.213ZM139.96 21.1812C140.587 21.6852 141.115 22.2852 141.395 22.9412C143.232 27.2452 140.873 35.6999 141.424 42.5146C143.94 43.0132 146.097 44.8292 148.511 46.8306C148.525 42.4252 148.609 41.2439 148.528 36.3826C148.423 29.9812 149.531 20.9932 146.808 17.9812C141.889 12.5412 131.096 9.8599 122.694 8.00657C120.139 7.4439 119.905 7.7879 120.24 11.6239C120.469 14.2519 130.898 16.4439 134.231 17.5119C137.016 18.4052 138.652 18.8946 139.96 21.1812ZM129.764 112.093L130.064 111.439L127.88 108.768L127.834 109.557L125.108 110.707C125.837 112.193 126.961 113.003 126.961 113.003L129.764 112.093ZM132.12 106.945L134.884 100.904C133.719 101.432 132.326 100.797 129.827 98.4426C126.427 93.5679 122.773 88.2412 119.817 89.3079L132.294 105.36L131.685 106.332L132.12 106.945ZM138.791 96.0826L136.772 100.523C137.387 100.903 138.204 101.431 138.747 101.747C138.908 101.84 139.075 101.924 139.239 102.004L141.929 93.2026C141.68 93.1559 141.416 93.1026 141.14 93.0426C140.211 94.1239 139.445 95.1492 138.791 96.0826ZM118.778 144.817L120.724 140.409L119.059 139.813L116.153 145.122C116.48 145.088 116.844 145.05 117.244 145.05C117.954 145.05 118.432 144.989 118.778 144.817ZM150.528 57.5692C150.12 57.5826 149.743 57.8386 149.46 58.2426C149.143 58.6972 148.945 59.3359 148.945 60.0466C148.945 60.7572 149.141 61.3946 149.46 61.8506C149.751 62.2666 150.14 62.5252 150.56 62.5252L150.629 62.5226L150.639 62.5212H150.648L150.659 62.5199L150.667 62.5186L150.679 62.5172H150.684L150.697 62.5159L150.703 62.5146L150.717 62.5132L150.721 62.5119L150.736 62.5092H150.739L150.755 62.5066L150.757 62.5052L150.773 62.5026H150.776L150.793 62.4986L150.811 62.4946L150.812 62.4932L150.829 62.4892H150.831L150.847 62.4852L150.851 62.4826L150.865 62.4799L150.869 62.4786L150.883 62.4732L150.888 62.4719L150.9 62.4679L150.907 62.4652L150.919 62.4612L150.925 62.4599L150.936 62.4559L150.944 62.4519L150.953 62.4492L150.963 62.4452L150.971 62.4412L150.981 62.4372L150.988 62.4346L150.999 62.4292L151.005 62.4266L151.017 62.4212L151.023 62.4186L151.036 62.4119L151.04 62.4106L151.053 62.4039L151.056 62.4026L151.072 62.3946L151.073 62.3932L151.089 62.3852L151.091 62.3839L151.107 62.3746L151.124 62.3652H151.125L151.14 62.3559L151.143 62.3546L151.157 62.3452L151.16 62.3439L151.173 62.3346L151.177 62.3332L151.191 62.3239L151.195 62.3212L151.207 62.3132L151.212 62.3092L151.223 62.3026L151.229 62.2972L151.239 62.2906L151.247 62.2852L151.255 62.2786L151.263 62.2732L151.272 62.2666L151.28 62.2599L151.287 62.2546L151.296 62.2466L151.303 62.2426L151.313 62.2332L151.319 62.2292L151.329 62.2199L151.333 62.2159L151.345 62.2052L151.349 62.2026L151.363 62.1919L151.365 62.1892L151.379 62.1772L151.38 62.1759L151.395 62.1612L151.411 62.1479V62.1466L151.425 62.1332L151.427 62.1319L151.44 62.1186L151.443 62.1159L151.455 62.1026L151.457 62.0999L151.473 62.0839L151.484 62.0719L151.488 62.0666L151.499 62.0559L151.504 62.0506L151.512 62.0399L151.519 62.0332L151.527 62.0239L151.533 62.0159L151.541 62.0079L151.548 61.9986L151.555 61.9919L151.563 61.9812L151.569 61.9746L151.577 61.9639L151.583 61.9572L151.592 61.9452L151.596 61.9399L151.607 61.9266L151.609 61.9226L151.62 61.9079L151.623 61.9052L151.635 61.8892L151.636 61.8866L151.648 61.8692H151.649L151.661 61.8506C151.98 61.3959 152.176 60.7572 152.176 60.0466C152.176 59.3359 151.98 58.6972 151.661 58.2426C151.372 57.8266 150.981 57.5692 150.56 57.5692H150.541H150.528ZM105.156 58.9999C106.38 59.9092 107.85 60.4492 109.206 59.7666C112.476 58.1186 112.067 57.5572 111.25 57.7479C110.507 57.9226 109.245 59.1092 105.42 57.5906C102.371 56.3812 102.775 57.2319 105.156 58.9999ZM103.23 78.8639C102.463 80.0332 101.107 82.1159 100.858 82.6119C100.508 83.3119 99.3588 82.8626 99.6084 81.7612C99.801 80.9132 102.111 78.6746 103.144 77.2679C103.142 77.1119 103.14 76.9532 103.14 76.7906C103.14 73.4412 102.868 68.7066 104.29 70.2412C104.29 70.2412 104.44 77.1412 104.29 78.7412C104.14 80.3412 104.39 81.9412 104.09 82.0412C103.858 82.1186 103.418 80.9452 103.23 78.8639ZM67.3844 76.3719C67.7817 79.8972 67.4317 79.9332 70.2197 81.7412C71.2729 82.4252 72.5136 83.2399 73.4 84.0439C72.865 82.0359 69.6245 78.4519 71.5109 73.5359C71.5109 73.5359 73.5109 78.1359 73.8109 79.3852C74.1109 80.6359 76.4874 83.0666 76.3609 84.9852C75.9978 90.4932 77.614 87.0852 82.3109 89.4852C83.2734 89.9772 84.3526 92.8732 85.1306 95.3906C86.6802 100.396 86.2073 100.084 84.1697 96.3599C83.0432 94.2999 81.075 92.3759 80.4114 92.4852C79.212 92.6852 77.5109 93.8852 76.4109 93.6852C75.3114 93.4852 72.6114 92.7852 72.5114 91.0852C72.4958 90.8146 72.5202 90.5052 72.5708 90.1652C73.4104 84.0852 64.8494 84.0892 65.1478 78.0759C65.3093 74.8159 66.6292 69.6786 67.3844 76.3719ZM97.8677 89.5559C97.7136 90.0919 97.5708 90.6092 97.477 90.9959C99.3489 89.6479 101.305 89.6639 103.792 88.6812H103.791C105.23 87.4692 105.055 89.8106 104.991 90.8186C104.918 91.9919 104.942 93.4319 105.336 94.4946C106.506 95.8212 108.71 96.7826 110.473 96.5372C111.543 96.3879 112.244 94.0852 113.32 92.9452C114.806 91.3706 116.518 90.9132 116.486 91.5092C116.464 91.9052 113.555 93.1119 113.305 94.5639C113.199 95.1799 112.071 97.4692 111.15 97.4426C109.588 97.3959 108.897 102.139 107.861 102.871C106.475 103.849 105.614 102.231 105.207 102.296C103.647 102.543 102.773 101.176 102.398 101.139C101.475 101.043 98.0224 101.388 96.8473 100.363C95.6724 99.3372 95.1104 97.1999 95.3104 95.6626C95.4817 94.3412 95.6182 93.1306 96.0964 92.3399C95.9406 92.2412 95.815 92.0439 95.7541 91.7052C95.5849 90.7639 96.2964 88.5266 97.2078 87.4106C99.3541 84.7852 98.0568 88.8986 97.8677 89.5559ZM103.091 95.1239C103.091 95.1239 102.56 93.2199 102.6 91.4786C98.0062 88.6626 95.5265 99.6759 101.273 96.1879C101.995 95.7492 102.593 95.3972 103.091 95.1239ZM89.3734 77.5212C94.4229 75.5212 96.4734 71.4706 96.4734 71.4706C96.4734 71.4706 91.351 76.3492 88.0874 76.4346C85.8682 76.4932 84.3098 76.4226 82.8188 74.9999C82.5 74.6946 82.2417 74.4572 82.1604 74.5666C81.3656 75.6319 84.8536 79.3106 89.3734 77.5212ZM56.0182 52.4319C58.4182 55.7319 59.8182 54.9319 61.8182 59.2319C63.8177 63.5319 63.6677 66.3826 63.6677 66.3826C63.6677 66.3826 61.2177 61.3812 59.5677 59.6319C57.9177 57.8812 56.1682 56.4826 54.3677 54.7826C52.5677 53.0812 52.3677 45.5319 52.3677 45.5319C52.3677 45.5319 49.9177 51.2812 52.0177 56.0319C54.1177 60.7826 55.6682 63.3319 55.8677 65.6812C56.336 71.1812 51.0568 57.4666 50.6177 56.2812C50.1177 54.9319 49.6182 49.2826 49.5677 47.4319C49.5177 45.5812 49.8677 40.6319 49.5177 39.0319C49.3193 38.1252 49.3458 36.6239 50.1333 37.0506C54.1578 39.2239 53.3557 48.7719 56.0182 52.4319ZM72.915 12.2546C72.8874 13.2079 72.9536 14.5319 73.4098 15.5306C74.2093 17.2812 74.2593 19.4799 74.0593 19.8306C73.8593 20.1812 72.9344 15.9559 71.9093 15.2812C71.0005 14.6812 71.0354 13.6906 72.4156 11.7986C73.2948 10.5919 72.9505 11.0186 72.915 12.2546ZM79.4245 8.14123C80.6306 8.09857 82.2557 8.43056 82.4109 10.4826C82.6609 13.7812 79.8609 14.9319 78.5109 18.2319C76.6005 22.9012 76.7245 20.9426 77.2614 18.4759C78.2844 13.7799 83.2396 10.5346 79.5208 8.83856C78.5338 8.3879 77.1136 8.22257 79.4245 8.14123ZM64.263 16.2239C63.8448 17.0319 63.7349 18.0426 65.212 18.6332C67.962 19.7319 70.2125 18.3319 71.1125 20.9826C71.4349 21.9332 71.6552 22.8452 71.8041 23.6239C73.1469 30.6399 72.5718 19.5466 71.612 18.1332C70.0516 15.8346 65.8224 19.0239 65.214 16.5572C64.9828 15.6159 65.4994 13.8372 64.263 16.2239ZM62.2969 29.0999C62.712 29.7132 63.3464 30.4346 64.3125 31.1826C65.8104 32.3399 66.8448 34.5212 67.4702 36.2986C67.9786 37.7426 69.1188 40.3559 67.5193 37.6799C65.325 34.0066 61.9812 32.9919 61.4396 29.7239C60.7682 25.6706 61.3478 27.6959 62.2969 29.0999ZM61.6322 21.3839C62.0208 21.9492 62.6521 22.3906 63.6645 22.4826C66.964 22.7826 68.8645 23.4826 69.8145 25.2332C70.4021 26.3159 70.6458 29.9452 70.7458 32.5546C70.886 36.2226 70.8057 36.1719 70.1036 32.9239C69.5797 30.4999 68.812 26.9759 67.014 25.6826C64.6364 23.9719 59.1578 25.2559 59.8806 21.2519C60.9546 15.2999 60.8453 20.2386 61.6322 21.3839ZM57.0328 31.4986C61.2026 35.8972 62.0098 42.0919 64.6906 43.1639C66.6901 43.9639 68.6406 48.2639 68.6406 48.2639C68.6406 48.2639 68.3396 43.0639 65.3901 40.7146C60.5568 36.8652 63.489 35.6386 57.364 31.2706C53.6401 28.6159 55.3349 29.7092 57.0328 31.4986ZM53.2937 33.3386C53.9073 33.7906 54.7229 34.3359 55.6145 34.7826C57.5145 35.7319 57.414 39.9332 59.1645 41.4332C60.9145 42.9319 62.3145 44.2826 63.3145 45.7332C64.3145 47.1826 66.665 49.0826 67.0645 51.2332C67.4645 53.3826 66.8645 60.1332 66.8645 60.1332C66.8645 60.1332 66.264 50.3826 63.4145 48.5332C60.5645 46.6826 56.914 43.1826 56.2645 41.6332C55.6921 40.2666 54.964 37.3106 53.0213 33.8572C52.0702 32.1652 51.6385 32.1159 53.2937 33.3386ZM54.2145 40.5826C54.2145 40.5826 55.0645 45.8319 58.3145 48.5332C61.5645 51.2332 62.865 53.4319 63.3145 54.7319C63.7645 56.0332 64.1645 57.5826 64.1645 57.5826C64.1645 57.5826 64.9645 53.8826 63.0645 50.6826C61.1645 47.4826 57.3516 47.5879 54.2145 40.5826ZM112.559 17.5772C110.643 15.4386 109.974 6.73989 108.966 9.58256C105.888 18.2559 117.291 20.5692 112.316 29.9826C111.732 31.0879 111.047 32.0812 110.334 32.9559C114.55 29.5279 118.987 24.7492 112.559 17.5772ZM94.589 94.0399C94.589 94.0399 88.1896 102.191 87.214 101.416C86.239 100.641 91.5896 94.7906 92.0896 93.3906C92.5896 91.9906 94.939 90.3412 94.589 94.0399ZM105.248 82.4119C105.498 83.6612 105.673 86.0372 105.323 86.5372C104.973 87.0372 103.624 89.5119 103.573 87.3119C103.523 85.1119 104.848 81.1612 105.248 82.4119ZM98.8568 121.557C102.924 123.291 105.583 122.081 106.805 121.053C108.466 119.659 107.21 120.255 106.244 120.553C104.847 120.984 102.424 121.466 99.3526 121.004C97.9234 120.788 96.2682 120.453 98.8568 121.557ZM78.0745 94.7639C78.5 95.7892 80.425 97.3146 80.875 97.9892C81.3245 98.6639 80.85 100.889 80.5 101.589C80.15 102.289 79.7745 98.9146 79.2245 98.3386C78.6745 97.7639 75.1245 93.9386 78.0745 94.7639ZM72.301 105.315C71.964 107.749 73.2734 110.128 75.1188 111.192C73.836 108.891 74.6942 104.113 75.1338 107.768C75.2364 108.619 75.4656 109.665 75.975 110.216C77.4453 111.8 77.7906 111.763 79.6932 111.397C78.4421 110.673 76.7057 108.399 77.4994 108.44C77.4994 108.44 78.2073 109.856 79.75 110.465C81.2926 111.073 81.6973 110.485 82.15 110.465C83.101 110.421 79.4817 113.473 76.075 112.765C73.8526 112.304 72.175 110.74 71.625 109.516C71.075 108.291 72.3 103.665 72.301 105.315ZM55.4234 89.9306C55.651 90.4399 56.3396 92.7732 56.501 93.5159C56.8 94.8892 57.976 95.8146 57.651 96.4652C57.326 97.1159 55.825 96.1399 55.726 94.9399C55.6844 94.4386 54.3046 92.5252 54.2166 91.1119C54.1292 89.7106 54.4281 87.6972 55.4234 89.9306ZM61.2265 94.3399C61.2265 94.3399 60.326 98.5906 61.9765 98.8399C63.6265 99.0906 64.626 99.2399 65.2765 100.84C65.9265 102.44 64.3516 101.365 63.401 100.591C62.451 99.8159 60.9005 100.891 59.901 98.7146C58.9016 96.5399 61.251 92.3906 61.2265 94.3399ZM72.8016 95.0719C72.9417 95.5652 73.8046 97.3172 74.4588 98.5239C75.4693 100.387 75.6421 98.5786 77.7406 100.524C79.0276 101.717 78.7202 102.972 77.076 101.367C75.6208 99.9466 75.4921 101.324 74.2806 100.812C73.6828 100.56 72.6369 97.2066 72.0921 95.3266C71.5557 93.4732 72.2724 93.2092 72.8016 95.0719ZM67.4193 93.5239C68.2573 94.4519 70.2666 95.8892 69.814 97.2452C69.6521 97.7279 69.9697 98.3999 70.4625 98.6572C71.2473 99.0692 71.6182 99.4399 72.3136 100.027C73.0458 100.645 73.6614 102.332 71.7448 100.849C71.1442 100.385 70.1406 99.9972 69.4516 99.6372C68.389 99.0812 68.2041 98.5146 68.4494 97.7812C68.7666 96.8279 67.026 95.0986 66.4156 94.4399C64.3161 92.1732 65.7921 91.7212 67.4193 93.5239ZM104.202 129.936C104.149 131.07 103.873 131.937 103.564 132.361C103.089 133.011 102.664 132.462 102.338 133.236C102.014 134.011 101.863 135.861 101.114 135.961C100.364 136.061 98.688 136.186 98.1636 135.036C97.639 133.886 97.1885 133.112 96.0636 132.712C94.9385 132.311 94.513 131.936 94.1385 131.436C93.7636 130.936 93.3636 130.686 93.2385 129.211C94.263 127.236 93.1385 130.361 95.0385 131.036C96.9385 131.711 97.8636 131.161 98.4385 132.161C99.3854 133.808 100.764 135.477 100.764 132.036C100.764 131.44 102.184 132.552 103.553 129.484C103.554 129.481 104.36 126.56 104.202 129.936ZM105.847 151.967L105.849 151.914C105.849 151.364 107.749 150.164 108.899 149.514C110.05 148.864 110.449 147.964 111.349 147.964C112.25 147.964 112.899 148.964 113.549 148.664C113.95 148.48 114.274 148.048 114.664 147.779C114.486 147.637 114.303 147.514 114.105 147.437C113.205 147.087 112.655 147.187 112.255 146.737C111.855 146.287 112.355 145.887 111.855 145.837C111.355 145.787 111.005 146.712 110.205 146.612C109.405 146.512 108.713 146.903 108.713 146.504C108.713 146.104 108.505 145.612 107.205 145.787C105.905 145.962 106.03 145.612 105.505 145.637C104.98 145.662 104.48 145.837 103.58 146.237C102.68 146.637 102.255 146.837 101.73 147.037C101.205 147.237 101.18 146.788 101.105 147.412C101.03 148.037 99.3057 151.687 101.506 152.337C103.706 152.987 105.011 151.869 105.431 151.887C105.507 151.889 105.659 151.918 105.847 151.967ZM116.114 148.799C116.224 149.193 116.414 149.457 116.999 149.164C118.299 148.514 119.349 146.514 120.5 146.314C121.704 146.105 121.997 147.295 123.155 147.211C123.09 147.186 123.022 147.157 122.949 147.123C121.756 146.564 122.255 145.307 120.855 145.655C119.455 146.003 117.705 146.4 117.305 147.096C116.905 147.792 117.805 148.389 116.705 148.787C116.491 148.846 116.297 148.844 116.114 148.799ZM124.442 146.895C125.274 146.602 126.049 146.214 126.049 146.214C126.049 146.214 128.9 143.615 129.55 143.164C130.2 142.714 131.2 141.914 131.2 141.414C131.2 141.206 131.253 140.796 131.299 140.35C130.623 140.487 129.939 140.509 129.655 140.683C129.005 141.08 128.905 142.373 128.605 142.82C128.305 143.268 127.455 144.163 126.855 144.859C126.255 145.555 127.564 144.859 125.814 145.894C125.149 146.287 124.748 146.639 124.442 146.895ZM74.9521 137.414C75.4521 137.364 75.527 137.189 77.6021 138.064C79.677 138.939 81.427 138.939 81.7521 138.664C82.077 138.389 79.5276 140.214 77.7521 139.664C75.977 139.114 71.2021 136.489 74.9521 137.414ZM93.9213 63.3279C91.976 61.3226 87.0041 60.4239 84.3702 61.4546C83.2213 61.9039 81.8708 62.9532 81.1708 63.7532C80.4702 64.5546 79.4708 67.1546 79.4708 67.1546C79.4708 67.1546 83.2833 63.4159 84.8333 62.9666C86.3833 62.5159 89.2458 62.1292 90.9958 62.4786C92.7453 62.8292 95.4713 65.3786 93.9213 63.3279ZM122.303 139.218C122.303 139.218 125.04 133.353 125.305 132.532L125.317 132.494L125.328 132.457L125.338 132.422H125.338L125.348 132.388V132.387L125.356 132.355V132.354L125.364 132.322V132.322L125.371 132.291V132.291L125.378 132.261L125.378 132.26L125.383 132.232L125.384 132.231L125.388 132.203V132.203L125.392 132.176V132.176L125.395 132.15L125.396 132.149L125.398 132.125L125.398 132.124L125.4 132.1V132.1L125.401 132.076V132.076L125.402 132.054V132.053L125.401 132.032V132.031L125.4 132.011V132.01L125.398 131.991V131.989L125.395 131.97V131.97L125.392 131.951V131.95L125.388 131.933V131.932L125.384 131.915L125.383 131.914L125.378 131.898V131.897L125.372 131.882L125.372 131.881L125.371 131.879L125.365 131.865L125.358 131.85L125.358 131.849L125.35 131.836L125.35 131.835L125.342 131.822L125.341 131.82L125.333 131.808L125.332 131.807L125.322 131.794L125.322 131.793L125.312 131.782L125.311 131.78L125.301 131.769L125.3 131.768L125.289 131.757L125.288 131.756L125.276 131.745L125.275 131.744L125.264 131.734L125.262 131.732L125.25 131.722L125.249 131.721L125.235 131.711L125.234 131.71L125.221 131.7L125.219 131.7L125.205 131.691L125.204 131.689L125.19 131.68L125.187 131.68L125.173 131.67L125.171 131.669L125.156 131.66L125.154 131.659L125.136 131.65L125.119 131.641L125.117 131.64L125.1 131.632L125.098 131.631L125.081 131.622L125.079 131.621L125.061 131.613L125.059 131.612L125.041 131.603L124.954 131.565L124.95 131.564L124.931 131.556L124.928 131.555L124.907 131.546L124.904 131.545L124.883 131.536L124.88 131.535L124.859 131.526L124.855 131.525L124.808 131.505L124.804 131.503L124.782 131.495L124.778 131.493L124.702 131.46L124.697 131.458L124.674 131.448L124.669 131.446C124.347 131.322 123.636 131.028 123.028 130.795L123.011 130.789L123.003 130.786L122.977 130.776L122.958 130.769L122.952 130.767L122.927 130.757L122.905 130.748L122.902 130.747L122.877 130.737L122.853 130.729L122.853 130.728L122.828 130.719L122.804 130.71L122.802 130.709L122.78 130.7L122.756 130.691L122.751 130.689L122.732 130.682L122.709 130.674L122.702 130.671L122.686 130.664L122.663 130.656L122.653 130.652L122.641 130.647L122.618 130.639L122.606 130.634L122.596 130.631L122.574 130.622L122.56 130.617L122.553 130.614L122.531 130.606L122.516 130.6L122.51 130.598L122.49 130.59L122.472 130.583L122.47 130.583L122.449 130.575L122.43 130.568V130.568L122.411 130.56L122.392 130.553L122.39 130.553L122.373 130.546L122.355 130.539L122.352 130.538L122.337 130.533L122.32 130.526L122.314 130.524L122.303 130.52L122.287 130.513L122.28 130.511L122.27 130.507L122.255 130.501L122.246 130.498L122.24 130.496L122.224 130.49L122.215 130.486L122.21 130.484L122.196 130.479L122.186 130.475L122.183 130.474L122.17 130.469L122.158 130.465L122.157 130.464L122.145 130.46L122.134 130.456L122.123 130.451L122.112 130.448L122.111 130.447L122.102 130.444L122.093 130.441L122.091 130.44L122.084 130.437L122.076 130.434L122.073 130.433L122.068 130.431L122.061 130.429L122.058 130.427L122.054 130.426L122.048 130.423L122.045 130.422L122.043 130.422L122.038 130.42L122.035 130.419L122.034 130.418L122.03 130.417L122.028 130.416L122.028 130.415L122.025 130.415L122.023 130.414L122.022 130.413C121.173 129.884 118.676 137.921 118.676 137.921L122.303 139.218ZM130.234 105.384L129.459 106.4L118.595 92.4226C118.765 91.9786 118.935 91.4706 119.087 90.9279L130.234 105.384ZM144.88 32.4732C145.675 32.4732 146.319 33.1359 146.319 33.9532C146.319 34.7692 145.675 35.4319 144.88 35.4319C144.087 35.4319 143.443 34.7692 143.443 33.9532C143.443 33.1359 144.087 32.4732 144.88 32.4732ZM127.514 108.319L124.698 104.873C124.529 105.683 124.33 107.121 124.544 108.836C124.576 109.089 124.624 109.332 124.684 109.564L127.514 108.319ZM115.009 61.6506C114.59 62.2946 113.96 62.9586 113.068 63.1919C111.151 63.6919 110.443 63.1506 110.443 63.1506C110.443 63.1506 110.047 62.2332 111.276 62.1292C112.505 62.0252 114.047 61.1706 114.255 60.6292C114.372 60.3266 114.799 60.0439 115.159 59.9546C116.149 59.4972 136.681 54.5492 138.721 54.2999C140.764 54.0492 142.849 54.1346 143.177 54.6706C143.505 55.2079 142.932 55.3012 141.807 55.3012C140.769 55.3012 118.434 60.8052 115.009 61.6506ZM109.204 134.191C108.687 138.041 109.1 142.137 110.25 143.265L113.434 143.209C113.074 142.538 111.642 139.834 111.642 139.283C111.642 138.709 119.856 126.249 121.336 124.004C121.78 122.813 122.02 122.038 121.942 121.91C121.821 121.713 109.722 130.341 109.204 134.191ZM113.94 142.744C114.896 139.597 118.118 132.065 120.174 126.97C117.306 131.326 112.309 138.96 112.309 139.283C112.309 139.655 113.499 141.919 113.94 142.744ZM109.412 77.1719C109.497 78.9386 109.616 79.7426 109.836 80.5986C109.762 82.3719 109.925 85.8826 110.021 87.6266C110.134 89.6932 110.145 92.3279 110.202 93.1786C110.135 93.2066 110.067 93.2346 109.998 93.2599L110.205 93.2266C110.216 93.3639 110.228 93.4439 110.242 93.4559C110.551 93.3426 110.873 93.1826 111.198 92.9946C113.995 92.1666 115.475 90.1786 115.465 89.3119C115.458 88.6599 113.147 85.9492 112.049 83.2986C111.353 81.6199 110.659 79.6932 110.659 77.7026C110.64 77.6212 110.045 75.9879 109.412 77.1719ZM141.193 71.9359C141.193 71.9359 143.016 70.6266 142.927 68.6892C142.837 66.7506 142.793 65.6852 142.593 65.3532C142.393 65.0212 142.537 67.2506 142.271 68.5399C142.003 69.8306 139.941 70.8066 141.193 71.9359ZM117.108 110.863V112.9L119.345 112.985L121.774 110.988C121.707 110.968 121.651 110.957 121.607 110.961C121.221 110.993 119.088 110.931 117.108 110.863ZM114.762 114.172L114.79 115.829C115.928 115.788 117.314 115.731 118.656 115.657V114.307L114.762 114.172Z" fill="white"/>
<path d="M132.456 108.289C131.852 107.929 131.655 107.145 132.016 106.543C132.377 105.939 133.159 105.743 133.763 106.104L137.216 108.164C137.819 108.524 138.016 109.307 137.655 109.911C137.295 110.513 136.512 110.711 135.908 110.349L132.456 108.289ZM133.735 105.088C133.168 104.749 132.983 104.013 133.322 103.448C133.66 102.881 134.395 102.697 134.961 103.036L138.203 104.969C138.769 105.307 138.953 106.043 138.616 106.608C138.276 107.176 137.543 107.36 136.976 107.021L133.735 105.088Z" fill="#ED1C24"/>
<path fill-rule="evenodd" clip-rule="evenodd" d="M135.765 67.1266C136.317 67.1266 136.768 67.5786 136.768 68.1292V75.1719C136.768 75.7239 136.317 76.1746 135.765 76.1746C135.215 76.1746 134.763 75.7239 134.763 75.1719V68.1292C134.763 67.5786 135.215 67.1266 135.765 67.1266ZM128.869 70.5986C129.42 70.5986 129.872 71.0506 129.872 71.6013V75.4159C129.872 75.9679 129.42 76.4186 128.869 76.4186C128.318 76.4186 127.867 75.9679 127.867 75.4159V71.6013C127.867 71.0506 128.318 70.5986 128.869 70.5986ZM132.415 70.7213C132.967 70.7213 133.417 71.1733 133.417 71.7239V75.5386C133.417 76.0906 132.967 76.5413 132.415 76.5413C131.864 76.5413 131.413 76.0906 131.413 75.5386V71.7239C131.413 71.1733 131.864 70.7213 132.415 70.7213Z" fill="#ED1C24"/>
<path fill-rule="evenodd" clip-rule="evenodd" d="M129.549 59.2292C133.641 59.2292 136.959 62.5465 136.959 66.6385C136.959 70.7305 133.641 74.0479 129.549 74.0479C125.457 74.0479 122.141 70.7305 122.141 66.6385C122.141 62.5465 125.457 59.2292 129.549 59.2292Z" fill="white"/>
<path fill-rule="evenodd" clip-rule="evenodd" d="M129.55 60.936C131.978 60.936 134.051 62.4533 134.873 64.592L138.141 63.104C138.728 62.8346 139.423 63.0933 139.692 63.6813C139.96 64.2693 139.701 64.9626 139.115 65.2306L135.241 66.9946C135.057 69.9786 132.58 72.3413 129.55 72.3413C127.709 72.3413 126.072 71.4693 125.029 70.116L120.867 72.012C120.084 72.3693 119.158 72.024 118.801 71.2413C118.443 70.4586 118.787 69.532 119.57 69.1746L123.875 67.2146C123.856 67.0253 123.846 66.8333 123.846 66.6386C123.846 63.488 126.399 60.936 129.55 60.936Z" fill="#ED1C24"/>
<path fill-rule="evenodd" clip-rule="evenodd" d="M128.272 61.7532C130.045 61.7532 131.481 63.1905 131.481 64.9625C131.481 66.7345 130.045 68.1719 128.272 68.1719C126.5 68.1719 125.064 66.7345 125.064 64.9625C125.064 63.1905 126.5 61.7532 128.272 61.7532Z" fill="#F57D4A"/>
<path fill-rule="evenodd" clip-rule="evenodd" d="M129.549 63.3132C131.386 63.3132 132.875 64.8012 132.875 66.6385C132.875 68.4759 131.386 69.9639 129.549 69.9639C127.712 69.9639 126.224 68.4759 126.224 66.6385C126.224 64.8012 127.712 63.3132 129.549 63.3132Z" fill="white"/>
<path d="M136.519 61.9545C136.068 62.0852 135.595 61.8279 135.461 61.3772C135.329 60.9265 135.588 60.4532 136.039 60.3212L138.687 59.5399C139.137 59.4065 139.611 59.6652 139.743 60.1159C139.875 60.5665 139.617 61.0399 139.167 61.1719L136.519 61.9545Z" fill="white"/>
<path fill-rule="evenodd" clip-rule="evenodd" d="M118.472 62.3479C118.472 62.3479 127.43 60.0972 131.597 59.2226C132.074 59.1226 135.231 58.4026 137.152 57.9092C138.804 57.4866 139.545 56.8572 136.892 57.3066C134.92 57.6399 131.713 58.3546 128.258 59.1666C123.611 60.2586 119.516 61.1932 118.509 61.6746C118.217 61.8146 118.184 62.2906 118.472 62.3479Z" fill="#ED1C24"/>
<path d="M0.466125 252.973H2.86821V250.811H3.33801C5.08957 250.811 6.17029 250.651 6.58071 250.341C7.15102 249.851 7.43123 247.289 7.43123 242.655V224.261C7.43123 221.549 7.19113 219.978 6.70102 219.568C6.42082 219.358 6.08019 219.208 5.67029 219.117C5.25987 219.028 4.78957 218.967 4.24894 218.937C3.70831 218.907 3.3281 218.887 3.08801 218.867V216.836C7.43123 216.986 10.6838 217.066 12.8354 217.066C14.5469 217.066 17.1484 217.026 20.6312 216.946C24.114 216.866 26.7156 216.836 28.4369 216.836L29.1677 217.556C28.9374 220.078 28.8177 222.59 28.8177 225.102H26.7661C26.6254 223.171 26.4656 221.69 26.2953 220.649C24.1636 220.098 21.8322 219.828 19.3098 219.828C17.389 219.828 15.9578 219.868 14.9969 219.948C14.9969 220.279 14.977 220.829 14.9369 221.589C14.8969 222.35 14.877 222.92 14.877 223.291V232.918C15.077 232.918 15.5276 232.938 16.2281 232.978C16.9286 233.018 17.4792 233.038 17.8693 233.038C18.95 233.038 19.9806 232.988 20.9812 232.878C21.9822 232.768 22.7828 232.628 23.3932 232.447C23.7036 232.278 23.9136 231.967 24.0338 231.517C24.1541 231.066 24.2338 230.526 24.274 229.916C24.3136 229.295 24.3442 228.905 24.3536 228.725H26.4156C26.4156 229.335 26.3953 230.296 26.3557 231.597C26.3156 232.908 26.2953 233.908 26.2953 234.589C26.2953 235.24 26.3156 236.19 26.3557 237.461C26.3953 238.732 26.4156 239.703 26.4156 240.364H24.2437C24.1636 240.364 24.1234 240.253 24.1234 240.014V239.283C24.1234 238.422 24.064 237.711 23.9437 237.161C23.8338 236.601 23.5234 236.22 23.0328 236.03C21.762 235.72 20.1208 235.56 18.1093 235.56H14.877V246.268C14.9166 247.539 14.977 248.44 15.0568 248.96C15.127 249.491 15.3073 249.891 15.5776 250.171C15.8573 250.441 16.2478 250.611 16.7584 250.691C17.2584 250.771 18.1093 250.811 19.3 250.811H19.9208V252.973C17.9088 252.893 14.8573 252.853 10.7838 252.853C7.26143 252.853 3.82862 252.893 0.466125 252.973Z" fill="white"/>
<path d="M45.0078 219.961C45.0078 221.245 44.4838 222.425 43.4478 223.513C42.413 224.601 41.2598 225.137 39.9754 225.137C38.7172 225.137 37.564 224.587 36.5156 223.486C35.4677 222.398 34.9432 221.219 34.9432 219.961C34.9432 219.096 35.1786 218.258 35.651 217.458C36.1229 216.659 36.7521 216.004 37.5114 215.506C38.2854 215.008 39.1104 214.759 39.9754 214.759C40.8666 214.759 41.7046 215.008 42.4786 215.506C43.238 216.004 43.8541 216.659 44.313 217.484C44.7718 218.297 45.0078 219.123 45.0078 219.961Z" fill="#ED1C24"/>
<path d="M30.4786 252.973H32.8802V250.801C34.2312 250.801 35.1417 250.752 35.6322 250.641C36.1224 250.531 36.4432 250.231 36.603 249.751C36.763 249.26 36.8333 248.329 36.8333 246.958V234.849C36.8333 233.989 36.7432 233.358 36.553 232.958C36.3729 232.558 36.0822 232.308 35.6822 232.207C35.2817 232.118 34.5817 232.067 33.5806 232.067H33.0005L33.1104 230.046C36.5328 229.665 39.8557 228.905 43.088 227.754L43.6984 228.104C43.6084 229.555 43.5578 231.747 43.5578 234.699V246.848C43.5578 247.979 43.6281 248.81 43.7584 249.35C43.8984 249.891 44.2188 250.261 44.7292 250.481C45.2396 250.691 46.0901 250.801 47.2806 250.801V252.973C45.7 252.893 43.2978 252.853 40.0958 252.853C36.8833 252.853 33.6806 252.893 30.4786 252.973Z" fill="white"/>
<path d="M48.612 252.973H51.1338V250.801C51.8745 250.781 52.565 250.761 53.2052 250.731C53.836 250.701 54.2765 250.591 54.5068 250.411C54.7464 250.221 54.8964 249.901 54.9765 249.46C55.0568 249.01 55.0969 248.179 55.0969 246.968V221.88C55.0969 220.629 54.9364 219.858 54.6166 219.558C54.2864 219.268 53.5354 219.117 52.3448 219.117H51.1338V217.066C54.7464 216.625 58.1093 215.855 61.2114 214.784L61.9421 215.045C61.862 216.556 61.8218 218.787 61.8218 221.76V246.848C61.8218 248.199 61.8718 249.11 61.9822 249.601C62.0921 250.091 62.3921 250.411 62.8724 250.571C63.363 250.721 64.2937 250.801 65.665 250.801V252.973C64.0636 252.893 61.6218 252.853 58.3396 252.853C55.1369 252.853 51.8942 252.893 48.612 252.973Z" fill="white"/>
<path d="M70.3478 241.204C70.3478 236.931 71.489 233.638 73.7708 231.336C76.0625 229.025 79.165 227.874 83.0874 227.874C83.7084 227.874 84.7489 227.954 86.1901 228.114C89.3426 228.384 91.6541 229.625 93.1254 231.817C94.5964 234.019 95.327 236.831 95.327 240.243C95.327 243.135 94.8464 245.577 93.876 247.589C92.9052 249.59 91.4338 251.101 89.4526 252.142C87.4609 253.173 84.989 253.693 82.0172 253.693C77.9942 253.693 75.0417 252.612 73.1604 250.451C71.2885 248.299 70.3478 245.217 70.3478 241.204ZM84.1385 230.506C83.5182 230.356 82.9978 230.276 82.5874 230.276C80.736 230.276 79.4354 231.167 78.6844 232.948C77.9338 234.719 77.5536 236.831 77.5536 239.272C77.5536 239.473 77.5338 239.823 77.4937 240.333C77.4536 240.834 77.4333 241.244 77.4333 241.564C77.4333 243.946 77.764 246.058 78.4344 247.909C79.0948 249.75 80.2453 250.841 81.8869 251.171C82.0073 251.171 82.1973 251.192 82.477 251.232C82.7473 251.272 82.9473 251.292 83.0874 251.292C86.0401 251.292 87.7114 248.53 88.1218 242.995C88.1218 242.805 88.1417 242.325 88.1817 241.564C88.2213 240.794 88.2417 240.193 88.2417 239.743C88.2417 237.401 87.9412 235.339 87.351 233.568C86.7505 231.807 85.6797 230.786 84.1385 230.506Z" fill="white"/>
<path d="M101.482 242.405H103.493C103.573 243.206 103.663 243.996 103.753 244.787C103.853 245.567 104.023 246.298 104.264 246.979C104.514 247.669 104.894 248.259 105.425 248.77C107.646 250.451 110.128 251.292 112.87 251.292C112.98 251.292 113.21 251.272 113.541 251.232C113.871 251.192 114.091 251.171 114.181 251.171C115.442 251.001 116.533 250.561 117.473 249.871C118.414 249.18 119.134 248.32 119.655 247.288C120.175 246.258 120.435 245.227 120.435 244.196C120.435 242.905 120.075 241.734 119.355 240.673C118.625 239.623 117.543 238.872 116.092 238.422C115.152 238.102 113.76 237.802 111.919 237.511C110.068 237.221 108.577 236.901 107.446 236.57C106.315 236.241 105.275 235.74 104.343 235.08C103.233 234.199 102.392 233.098 101.832 231.767C101.261 230.436 100.981 229.025 100.981 227.524C100.981 226.443 101.111 225.443 101.361 224.502C101.772 222.981 102.402 221.69 103.243 220.629C104.073 219.558 105.114 218.667 106.355 217.946C107.596 217.226 108.927 216.696 110.348 216.366C111.759 216.035 113.28 215.865 114.902 215.865C116.703 215.865 118.475 216.066 120.225 216.466C121.967 216.856 123.518 217.416 124.869 218.137C124.519 220.829 124.279 223.471 124.169 226.043H122.227C122.127 224.361 122.017 223.161 121.887 222.44C121.767 221.72 121.356 221.079 120.666 220.529C119.985 219.868 119.085 219.387 117.954 219.078C116.833 218.777 115.692 218.627 114.541 218.627H113.22C111.559 218.807 110.178 219.537 109.097 220.839C108.007 222.14 107.466 223.561 107.466 225.112C107.466 226.343 107.826 227.423 108.557 228.344C109.277 229.275 110.388 229.956 111.899 230.386C112.78 230.656 114.181 230.956 116.092 231.276C118.014 231.607 119.525 231.907 120.625 232.207C121.737 232.498 122.837 233.018 123.928 233.758C125.029 234.479 125.82 235.48 126.31 236.76C126.8 238.042 127.041 239.433 127.041 240.944C127.041 241.665 126.96 242.675 126.81 243.966C126.28 246.108 125.239 247.939 123.688 249.43C122.127 250.921 120.266 252.032 118.104 252.743C115.932 253.453 113.63 253.813 111.209 253.813C107.145 253.813 103.693 253.013 100.861 251.411C101.271 248.159 101.482 245.167 101.482 242.405Z" fill="white"/>
<path d="M131.473 241.204C131.473 236.931 132.615 233.638 134.896 231.336C137.188 229.025 140.291 227.874 144.213 227.874C144.833 227.874 145.875 227.954 147.316 228.114C150.468 228.384 152.78 229.625 154.251 231.817C155.721 234.019 156.452 236.831 156.452 240.243C156.452 243.135 155.972 245.577 155.001 247.589C154.031 249.59 152.56 251.101 150.579 252.142C148.587 253.173 146.115 253.693 143.143 253.693C139.12 253.693 136.167 252.612 134.285 250.451C132.415 248.299 131.473 245.217 131.473 241.204ZM145.264 230.506C144.644 230.356 144.124 230.276 143.713 230.276C141.861 230.276 140.561 231.167 139.809 232.948C139.06 234.719 138.679 236.831 138.679 239.272C138.679 239.473 138.66 239.823 138.619 240.333C138.579 240.834 138.559 241.244 138.559 241.564C138.559 243.946 138.889 246.058 139.56 247.909C140.22 249.75 141.371 250.841 143.012 251.171C143.133 251.171 143.323 251.192 143.603 251.232C143.873 251.272 144.073 251.292 144.213 251.292C147.165 251.292 148.837 248.53 149.248 242.995C149.248 242.805 149.267 242.325 149.307 241.564C149.347 240.794 149.367 240.193 149.367 239.743C149.367 237.401 149.067 235.339 148.476 233.568C147.876 231.807 146.805 230.786 145.264 230.506Z" fill="white"/>
<path d="M157.904 252.973H160.195V250.931C161.587 250.892 162.537 250.811 163.057 250.681C163.568 250.551 163.928 250.251 164.108 249.77C164.299 249.29 164.388 248.44 164.388 247.209V233.268C163.939 233.268 163.277 233.288 162.397 233.328C161.516 233.368 160.856 233.388 160.425 233.388V232.187L164.388 230.396C164.388 227.994 164.628 226.053 165.109 224.572C165.589 223.081 166.36 221.79 167.44 220.689C168.512 219.588 170.092 218.297 172.184 216.836C173.105 216.205 173.925 215.715 174.645 215.345C175.376 214.975 176.117 214.784 176.877 214.784C177.639 214.784 178.399 215.025 179.16 215.515L178.199 220.899L177.497 221.019C177.088 220.549 176.537 220.129 175.867 219.768C175.196 219.408 174.536 219.228 173.895 219.228C173.205 219.228 172.644 219.387 172.195 219.698C171.313 220.498 170.873 222.58 170.873 225.943C170.873 226.603 170.893 227.434 170.933 228.435C170.973 229.425 170.993 230.006 170.993 230.166C171.653 230.166 172.705 230.146 174.125 230.106C175.547 230.066 176.637 230.046 177.379 230.046L176.997 233.388H170.993V245.887C170.993 247.709 171.064 248.91 171.203 249.491C171.333 250.081 171.684 250.461 172.255 250.621C172.824 250.791 173.965 250.892 175.687 250.931V252.973C174.005 252.893 171.444 252.853 168.001 252.853C164.559 252.853 161.185 252.893 157.904 252.973Z" fill="white"/>
<path d="M186.124 233.268C185.715 233.268 185.093 233.288 184.253 233.328C183.412 233.368 182.792 233.388 182.401 233.388V232.308L186.275 230.166C186.275 226.543 186.184 223.861 186.004 222.1C187.765 221.549 189.928 220.669 192.5 219.458L193.2 219.958C192.889 224.572 192.729 228.014 192.729 230.276C195.432 230.125 197.483 230.046 198.873 230.046L198.493 233.268H192.729V242.275C192.729 244.096 192.809 245.507 192.96 246.518C193.12 247.529 193.469 248.309 194.011 248.88C194.551 249.451 195.361 249.731 196.461 249.731C196.932 249.731 197.973 249.57 199.575 249.26V250.341C198.033 251.572 196.803 252.403 195.872 252.823C194.941 253.243 193.62 253.453 191.899 253.453C190.117 253.453 188.817 253.113 187.985 252.422C187.155 251.742 186.635 250.841 186.435 249.731C186.224 248.61 186.124 247.139 186.124 245.297V233.268Z" fill="white"/>
</svg>
