<svg width="76" height="68" viewBox="0 0 76 68" fill="none" xmlns="http://www.w3.org/2000/svg">
<path d="M38 17.3334C42.6024 17.3334 46.3334 13.6024 46.3334 9.00002C46.3334 4.39765 42.6024 0.666687 38 0.666687C33.3976 0.666687 29.6667 4.39765 29.6667 9.00002C29.6667 13.6024 33.3976 17.3334 38 17.3334Z" fill="url(#paint0_linear_11_78)"/>
<path d="M75.5 50.6667V42.3334C66.1667 42.3334 58.1667 38.3334 52.1667 31.1667L46.5833 24.5001C45 22.5834 42.6667 21.5001 40.2083 21.5001H35.8333C33.375 21.5001 31.0417 22.5834 29.4583 24.5001L23.875 31.1667C17.8333 38.3334 9.83333 42.3334 0.5 42.3334V50.6667C12.0417 50.6667 22.125 45.7917 29.6667 37.125V46.5L13.5 52.9584C10.7083 54.0834 8.83333 56.8334 8.83333 59.875C8.83333 64 12.1667 67.3334 16.2917 67.3334H25.5V65.25C25.5 59.5 30.1667 54.8334 35.9167 54.8334H48.4167C49.5833 54.8334 50.5 55.75 50.5 56.9167C50.5 58.0834 49.5833 59 48.4167 59H35.9167C32.4583 59 29.6667 61.7917 29.6667 65.25V67.3334H59.7083C63.8333 67.3334 67.1667 64 67.1667 59.875C67.1667 56.8334 65.2917 54.0834 62.5 52.9584L46.3333 46.5V37.125C53.875 45.7917 63.9583 50.6667 75.5 50.6667Z" fill="url(#paint1_linear_11_78)"/>
<defs>
<linearGradient id="paint0_linear_11_78" x1="38" y1="0.666687" x2="38" y2="17.3334" gradientUnits="userSpaceOnUse">
<stop stop-color="#FDCB52"/>
<stop offset="0.53" stop-color="#FC353C"/>
<stop offset="1" stop-color="#2E0795"/>
</linearGradient>
<linearGradient id="paint1_linear_11_78" x1="38" y1="21.5001" x2="38" y2="67.3334" gradientUnits="userSpaceOnUse">
<stop stop-color="#FDCB52"/>
<stop offset="0.53" stop-color="#FC353C"/>
<stop offset="1" stop-color="#2E0795"/>
</linearGradient>
</defs>
</svg>
