<svg width="84" height="84" viewBox="0 0 84 84" fill="none" xmlns="http://www.w3.org/2000/svg">
<path d="M74.25 68.375C80.125 61.1666 83.6667 52 83.6667 42C83.6667 19 65 0.333313 42 0.333313C19 0.333313 0.333313 19 0.333313 42C0.333313 65 19 83.6667 42 83.6667C52 83.6667 61.1666 80.125 68.375 74.25C69.5 73.3333 70.5833 72.3333 71.625 71.2917C71.75 71.1667 71.8333 71.0417 71.9167 70.9583C72.75 70.125 73.5416 69.25 74.25 68.375ZM42 75.3333C23.625 75.3333 8.66665 60.375 8.66665 42C8.66665 23.625 23.625 8.66665 42 8.66665C60.375 8.66665 75.3333 23.625 75.3333 42C75.3333 49.7083 72.7083 56.75 68.2916 62.4166L62.3333 56.4583C65.2083 52.375 66.9166 47.4166 66.9166 42.0416C66.9166 28.25 55.7083 17.0416 41.9166 17.0416C28.125 17.0416 16.9166 28.25 16.9166 42.0416C16.9166 55.8333 28.125 67.0416 41.9166 67.0416C47.3333 67.0416 52.375 65.2916 56.4583 62.3333L62.375 68.25C56.75 72.7083 49.7083 75.3333 42 75.3333ZM50 44.125C50.7083 41.375 50.0833 38.375 47.9583 36.2083L47.875 36.125C44.6666 32.9166 39.5416 32.875 36.2916 35.9583C36.25 36 36.1666 36.0416 36.0833 36.125C32.8333 39.375 32.8333 44.6666 36.0833 47.9166L36.1666 48C38.3333 50.125 41.375 50.7917 44.125 50.0417L50.4167 56.3333C47.9167 57.8333 45.0416 58.75 41.9166 58.75C32.7083 58.75 25.25 51.2917 25.25 42.0833C25.25 32.875 32.7083 25.4167 41.9166 25.4167C51.125 25.4167 58.5833 32.875 58.5833 42.0833C58.5833 45.125 57.7083 47.9583 56.25 50.4167L50 44.125Z" fill="url(#paint0_linear_11_98)"/>
<defs>
<linearGradient id="paint0_linear_11_98" x1="42" y1="0.333313" x2="42" y2="83.6666" gradientUnits="userSpaceOnUse">
<stop stop-color="#FDCB52"/>
<stop offset="0.53" stop-color="#FC353C"/>
<stop offset="1" stop-color="#2E0795"/>
</linearGradient>
</defs>
</svg>
