<svg width="35" height="35" viewBox="0 0 35 35" fill="none" xmlns="http://www.w3.org/2000/svg">
<path d="M17.6116 4.3728H17.8063C19.6044 4.37937 28.7153 4.44499 31.1719 5.10562C31.9145 5.30723 32.5912 5.70023 33.1344 6.24532C33.6776 6.79042 34.0682 7.46852 34.2672 8.21187C34.4881 9.04312 34.6434 10.1434 34.7484 11.2787L34.7703 11.5062L34.8184 12.075L34.8359 12.3025C34.9781 14.3019 34.9956 16.1744 34.9978 16.5834V16.7475C34.9956 17.1719 34.9759 19.1712 34.8184 21.2537L34.8009 21.4834L34.7812 21.7109C34.6719 22.9622 34.51 24.2047 34.2672 25.1191C34.0682 25.8624 33.6776 26.5405 33.1344 27.0856C32.5912 27.6307 31.9145 28.0237 31.1719 28.2253C28.6344 28.9078 18.9897 28.9559 17.6531 28.9581H17.3425C16.6666 28.9581 13.8709 28.945 10.9397 28.8444L10.5678 28.8312L10.3775 28.8225L10.0034 28.8072L9.62937 28.7919C7.20125 28.6847 4.88906 28.5119 3.82375 28.2231C3.08137 28.0217 2.40483 27.629 1.86167 27.0843C1.31852 26.5397 0.92777 25.862 0.728437 25.1191C0.485625 24.2069 0.32375 22.9622 0.214375 21.7109L0.196875 21.4812L0.179375 21.2537C0.070795 19.7715 0.010971 18.2861 0 16.8L0 16.5309C0.004375 16.0606 0.021875 14.4353 0.14 12.6416L0.155313 12.4162L0.161875 12.3025L0.179375 12.075L0.2275 11.5062L0.249375 11.2787C0.354375 10.1434 0.509687 9.04093 0.730625 8.21187C0.929623 7.46852 1.32023 6.79042 1.8634 6.24532C2.40657 5.70023 3.0833 5.30723 3.82594 5.10562C4.89125 4.82124 7.20344 4.64624 9.63156 4.53687L10.0034 4.52155L10.3797 4.50843L10.5678 4.50187L10.9419 4.48655C13.0237 4.41962 15.1064 4.38243 17.1894 4.37499L17.6116 4.3728ZM14 11.3947V21.9341L23.0934 16.6666L14 11.3947Z" fill="white"/>
</svg>
